<?xml version="1.0" encoding="utf-8"?>
<!-- Generator: Adobe Illustrator 23.0.1, SVG Export Plug-In . SVG Version: 6.00 Build 0)  -->
<svg version="1.1" id="Layer_1" xmlns="http://www.w3.org/2000/svg" xmlns:xlink="http://www.w3.org/1999/xlink" x="0px" y="0px"
	 viewBox="0 0 100 100" style="enable-background:new 0 0 100 100;" xml:space="preserve">
<style type="text/css">
	.st0{fill:#FFFFFF;}
</style>
<g>
	<path class="st0" d="M35.4,0v15c0,6.9-2.3,13.6-6.6,19.5C25.4,39.1,24.5,43,26,46c1.9,3.8,6.5,3.9,6.5,3.9c7.8,0,15.8-2.5,16.7-2.8
		c5.5-1.8,10.6-2.4,14.4-2.8c4.9-0.5,8.1-0.9,9.3-3.7c1.2-2.6-0.8-5.2-1.5-6.2c-4.3-5.9-6.6-12.7-6.6-19.5V0H35.4z M66.6,38L66.6,38
		c-1,0.3-2.4,0.4-3.7,0.6c-4,0.4-9.5,1-15.6,3l0,0c-0.3,0.1-7.7,2.4-14.6,2.5c-0.5-0.1-1.3-0.4-1.5-0.8c-0.2-0.5,0-2.2,2.3-5.4
		c5.1-6.9,7.8-14.9,7.8-23v-9h17.6V15C58.8,23.1,61.5,31.1,66.6,38z"/>
	<path class="st0" d="M64.6,100V85c0-6.9,2.3-13.6,6.6-19.5C74.6,60.9,75.5,57,74,54c-1.9-3.8-6.5-3.9-6.5-3.9
		c-7.8,0-15.8,2.5-16.7,2.8c-5.5,1.8-10.6,2.4-14.4,2.8c-4.9,0.5-8.1,0.9-9.3,3.7c-1.2,2.6,0.8,5.2,1.5,6.2
		c4.3,5.9,6.6,12.7,6.6,19.5v15L64.6,100L64.6,100z M33.4,62L33.4,62c1-0.3,2.4-0.4,3.7-0.6c4-0.4,9.5-1,15.6-3l0,0
		c0.3-0.1,7.7-2.4,14.6-2.5c0.5,0.1,1.3,0.4,1.5,0.8c0.2,0.5,0,2.2-2.3,5.4c-5.1,6.9-7.8,14.9-7.8,23v9.1H41.2V85
		C41.2,76.9,38.5,68.9,33.4,62z"/>
	<path class="st0" d="M19.1,27.8C14.4,34.3,11.9,42,11.9,50s2.5,15.7,7.1,22.2l4.8-3.4c-4-5.5-6-12-6-18.8s2.1-13.3,6-18.8
		L19.1,27.8z"/>
	<path class="st0" d="M80.9,72.2C85.6,65.7,88,58,88,50s-2.5-15.7-7.1-22.2l-4.8,3.4c4,5.5,6,12,6,18.8s-2.1,13.3-6,18.8L80.9,72.2z
		"/>
</g>
</svg>
