<?xml version="1.0" encoding="utf-8"?>
<!-- Generator: Adobe Illustrator 23.0.1, SVG Export Plug-In . SVG Version: 6.00 Build 0)  -->
<svg version="1.1" id="Layer_1" xmlns="http://www.w3.org/2000/svg" xmlns:xlink="http://www.w3.org/1999/xlink" x="0px" y="0px"
	 viewBox="0 0 100 100" style="enable-background:new 0 0 100 100;" xml:space="preserve">
<style type="text/css">
	.st0{fill:#FFFFFF;}
</style>
<g>
	<path class="st0" d="M20.7,0c2.3,0,4.5,0,6.8,0c0.2,0.6,0.4,1.1,0.7,1.7c2.2,4.5,4,9.1,4.3,14.1c0.6,8.3-0.9,16.3-4.5,23.8
		c-0.1,0.2-0.2,0.4-0.3,0.7c14.9,0,29.8,0,44.7,0c0-0.1,0-0.2,0-0.2c-0.1-0.3-0.3-0.5-0.4-0.8c-3.5-7.2-4.8-14.7-4.5-22.6
		c0.3-5.3,2.1-10.2,4.4-15c0.3-0.5,0.5-1.1,0.7-1.7c2.3,0,4.5,0,6.8,0c-0.3,0.6-0.6,1.1-0.9,1.7c-3.4,6.2-5.8,12.7-5.1,20
		c0.6,6.2,2,12.1,5.2,17.4c1.8,2.9,3.6,5.8,5.2,8.8c5,9.4,5.7,19.1,1.5,28.9c-1.6,3.5-3.8,6.8-5.9,10.1c-1.5,2.4-3,4.9-3.9,7.6
		c-0.5,1.8-1,3.6-1.5,5.5c-1.9,0-3.9,0-5.8,0c0-0.1,0-0.3,0-0.4c0.9-4.8,2.3-9.5,4.9-13.7c1.6-2.5,3.2-5,4.8-7.5
		c2.7-4.4,4.2-9.1,4.2-14.3c0-1.3-0.1-2.6-0.2-3.9c-0.5,0-0.7,0-1,0.1c-4.4,0.8-8.8,2-12.9,3.9c-5.7,2.5-10.7,6-14.3,11.1
		c-0.4,0.5-0.6,1.3-0.6,2c0,7.5,0,15.1,0,22.7c-1.9,0-3.9,0-5.8,0c0-7.6,0-15.2,0-22.8c0-0.6-0.2-1.3-0.6-1.8
		c-1.5-1.7-2.9-3.5-4.6-5c-5.5-4.9-12.1-7.6-19.2-9.3c-1.4-0.4-2.9-0.6-4.3-0.9c-0.1,0.3-0.1,0.3-0.2,0.4c0,0.2-0.1,0.4-0.1,0.6
		c-0.5,5.7,0.5,11,3.4,16c1.8,3,3.7,5.9,5.5,8.8c2.7,4.3,4.1,9,4.9,14c-1.9,0-3.9,0-5.8,0c-0.1-0.3-0.1-0.6-0.2-0.9
		c-0.8-4-2.2-7.7-4.4-11.1c-1.7-2.6-3.5-5.3-5-8c-5-9-5.6-18.4-2.1-28c1.5-4.1,3.9-7.7,6.2-11.4c2.7-4.3,4.6-8.8,5.4-13.8
		c1-5.5,1.2-11-0.5-16.4C24.4,6.8,22.6,3.4,20.7,0z M80.3,54.5c-0.2-0.5-0.3-0.9-0.5-1.2c-1-2-2.2-4-3.2-6c-0.4-0.8-1-1-1.8-1
		c-16.3,0-32.6,0-48.9,0c-1.4,0-2.3,0.3-2.9,1.6c-1.1,2.2-2.3,4.3-3.5,6.7c11.9,2.2,22.5,6.6,30.5,15.9C58.1,61,68.6,56.7,80.3,54.5
		z"/>
	<path class="st0" d="M0.3,61.7c0.1-0.3,0.2-0.7,0.3-1.1c1.9,0.2,3.7,0.4,5.6,0.6c0,1.8,0,3.5,0,5.3c-1.8,0.2-3.6,0.3-5.3,0.5
		c-0.2,0-0.4-0.3-0.6-0.4C0.3,65,0.3,63.4,0.3,61.7z"/>
	<path class="st0" d="M90,38.3c1,1.7,2,3.3,3,4.9c-1.6,1-3.2,2-5,3.1c-1-1.7-2-3.4-3.1-5.1C86.7,40.2,88.3,39.2,90,38.3z"/>
	<path class="st0" d="M96,48.4c0.8,2,1.6,3.8,2.4,5.9c-1.9,0.6-3.7,1.2-5.6,1.7c-0.7-1.6-1.3-3.3-2-4.9C92.5,50.3,94.2,49.4,96,48.4
		z"/>
	<path class="st0" d="M96.1,79.4c-1.8-1-3.5-1.9-5.2-2.8c0.7-1.7,1.4-3.2,2.1-4.9c1.8,0.5,3.6,1.1,5.6,1.7
		C97.7,75.4,96.9,77.3,96.1,79.4z"/>
	<path class="st0" d="M92.8,84.6c-1,1.6-2.1,3.2-3.1,4.8c-1.7-1-3.3-2-5-3c1.1-1.7,2.1-3.3,3.2-5C89.6,82.4,91.2,83.5,92.8,84.6z"/>
	<path class="st0" d="M99.7,67.1c-1.9-0.2-3.8-0.3-5.7-0.5c0-1.8,0-3.5,0-5.3c1.8-0.2,3.7-0.4,5.7-0.6
		C99.7,62.8,99.7,64.9,99.7,67.1z"/>
	<path class="st0" d="M1.6,73.4c2-0.6,3.8-1.2,5.6-1.7c0.7,1.6,1.3,3.2,2.1,4.9c-1.6,0.9-3.3,1.8-5.1,2.8
		C3.3,77.4,2.5,75.5,1.6,73.4z"/>
	<path class="st0" d="M15.3,41.1c-1,1.8-2,3.4-3.1,5.1c-1.7-1-3.3-2-5-3c1-1.6,1.9-3.2,2.9-5C11.8,39.2,13.5,40.1,15.3,41.1z"/>
	<path class="st0" d="M7.4,84.6c1.6-1.1,3.2-2.1,4.9-3.2c1.1,1.6,2.1,3.3,3.2,5c-1.7,1-3.3,2-5,3C9.4,87.8,8.4,86.2,7.4,84.6z"/>
	<path class="st0" d="M1.7,54.3c0.8-2,1.6-3.9,2.4-5.9c1.8,0.9,3.5,1.8,5.2,2.7c-0.7,1.6-1.3,3.2-2,4.9C5.5,55.5,3.7,54.9,1.7,54.3z
		"/>
	<path class="st0" d="M47.2,29.5c1.9,0,3.8,0,5.7,0c0,1.9,0,3.8,0,5.8c-1.9,0-3.7,0-5.7,0C47.2,33.4,47.2,31.5,47.2,29.5z"/>
</g>
</svg>
