<?xml version="1.0" encoding="utf-8"?>
<!-- Generator: Adobe Illustrator 23.0.1, SVG Export Plug-In . SVG Version: 6.00 Build 0)  -->
<svg version="1.1" id="Layer_1" xmlns="http://www.w3.org/2000/svg" xmlns:xlink="http://www.w3.org/1999/xlink" x="0px" y="0px"
	 viewBox="0 0 100 100" style="enable-background:new 0 0 100 100;" xml:space="preserve">
<style type="text/css">
	.st0{clip-path:url(#SVGID_2_);}
	.st1{fill:#FFFFFF;}
</style>
<g>
	<defs>
		<rect id="SVGID_1_" width="100" height="100"/>
	</defs>
	<use xlink:href="#SVGID_1_"  style="overflow:visible;fill:#FFFFFF;"/>
	<clipPath id="SVGID_2_">
		<use xlink:href="#SVGID_1_"  style="overflow:visible;"/>
	</clipPath>
	<g class="st0">
		<path class="st1" d="M72.5,44.1c-7.4,0-14.3,2.8-19.5,8c-0.4,0.4-0.9,0.9-1.3,1.4c-4-2.7-8.7-4.2-13.6-4.2
			c-4.5,0-8.9,1.3-12.7,3.6v-23h17.1V14.6C42.5,6.5,36,0,28,0H8.9L8.2,2C0.7,25.2-3.3,62.8,3.7,89.8l0.4,1.5l1.4,0.5
			c13.2,5,28.2,7.7,44.6,8.1c1.3,0,2.6,0,3.9,0c14.3,0,29.3-1.8,43.8-5.3l2.2-0.5V71.8C99.9,56.6,87.6,44.1,72.5,44.1z M94.1,89.5
			c-30.4,7-61.2,6-85.1-2.6c-6-25-2.5-58.9,4.2-81H28c4.7,0,8.5,3.7,8.7,8.3h-7.4v-3.4h-5.9V20h13.3v4H19.6v42.6l5.1-5.6
			c3.4-3.8,8.4-6,13.5-6c3.7,0,7.2,1.1,10.2,3.2c-2.2,4-3.4,8.6-3.4,13.3h5.9c0-5.8,2.3-11.2,6.4-15.3c4.1-4.1,9.5-6.3,15.3-6.3
			c0,0,0.1,0,0.1,0c11.9,0,21.5,9.9,21.5,21.9V89.5z"/>
		<path class="st1" d="M64.3,37.1h16.4V25.4h9.3L72.5,4.9L55,25.4h9.3V37.1z M72.5,13.9l4.8,5.6h-2.5v11.7h-4.7V19.5h-2.5L72.5,13.9
			z"/>
	</g>
</g>
</svg>
