<?xml version="1.0" encoding="utf-8"?>
<!-- Generator: Adobe Illustrator 23.0.1, SVG Export Plug-In . SVG Version: 6.00 Build 0)  -->
<svg version="1.1" id="Layer_1" xmlns="http://www.w3.org/2000/svg" xmlns:xlink="http://www.w3.org/1999/xlink" x="0px" y="0px"
	 viewBox="0 0 100 100" style="enable-background:new 0 0 100 100;" xml:space="preserve">
<style type="text/css">
	.st0{fill:#FFFFFF;}
</style>
<g>
	<path class="st0" d="M51.7,5V0h-3.3v5C25.1,6,6.7,25.1,6.7,48.3H0v3.3h6.8c1.7,21.9,19.6,39.1,41.5,40v5h3.3v-5
		c8.3-0.3,16.3-3,23.1-7.8l15.7,15.7c0.6,0.6,1.7,0.6,2.4,0l6.7-6.7c0.6-0.6,0.6-1.7,0-2.4L84.1,75.1c5.3-6.7,8.5-14.9,9.1-23.4h6.8
		v-3.3h-6.7C93.3,25.1,74.9,6,51.7,5z M48.3,8.4v5C29.7,14.3,15,29.7,15,48.3h-5C10,26.9,26.9,9.3,48.3,8.4z M48.3,88.3
		c-20.1-0.9-36.5-16.5-38.2-36.6h5C16.9,69,31,82.4,48.3,83.2V88.3z M48.3,76.7v3.2c-15.5-0.8-28.1-12.8-29.8-28.2h3.1v-3.3h-3.3
		c0-16.8,13.2-30.7,30-31.6V20h3.3v-3.2c16.8,0.9,30,14.7,30,31.6h-3.3v3.3h3.1c-1.7,15.5-14.3,27.4-29.8,28.2v-3.2H48.3z M96,91.7
		L91.7,96L77.5,81.8c1.6-1.3,3-2.7,4.4-4.2L96,91.7z M51.7,88.3v-5C69,82.4,83.1,69,84.8,51.7h5C88.1,71.7,71.8,87.4,51.7,88.3z
		 M85,48.3c0-18.7-14.7-34-33.3-34.9v-5C73.1,9.3,90,26.9,90,48.3H85z"/>
	<path class="st0" d="M61.9,63.7H40.6c-0.4,0-0.8-0.2-1.1-0.5l-9.9-9.9c-0.4-0.4-0.6-1-0.4-1.6l4-11.9c0.1-0.3,0.3-0.6,0.6-0.8
		l13.2-9.3c0.2-0.2,0.6-0.3,0.9-0.3h8.6c0.9,0,1.5,0.7,1.5,1.5v7.3c0,0.9-0.7,1.5-1.5,1.5h-6.6c-0.5,0-0.9-0.2-1.2-0.5l-3.1,5.9
		c1.5-0.8,3.2-1.1,4.9-1.1c1.5,0,3,0.3,4.4,0.9l2.3,1c2.9-2.1,6.4-3.3,10-3.3c0.4,0,0.8,0,1.2,0h2.1v3.1h-2.2h0c-0.3,0-0.6,0-0.9,0
		c-2.1,0-4.2,0.5-6.1,1.3v13.5h1.1c0.4,0,0.8,0.2,1.1,0.5l7.2,7.2l-2.2,2.2L61.9,63.7z M58.3,60.6V49.1c-0.5,0.4-0.9,0.8-1.2,1.3
		l-1.2,1.5L53.5,50l1.2-1.5c0.1-0.1,0.1-0.1,0.2-0.2l-1.1-0.5c-1-0.4-2.1-0.6-3.2-0.6c-1.8,0-3.6,0.6-5,1.7l-3.3,2.6
		c-0.3,0.2-0.6,0.3-0.9,0.3c-0.3,0-0.5-0.1-0.7-0.2c-0.8-0.4-1-1.3-0.6-2.1l7.3-13.9c0.3-0.5,0.7-0.8,1.3-0.8c0,0,0.1,0,0.1,0
		c0.5,0,1,0.3,1.3,0.7l0.9,1.3H55v-4.2h-6.6L36,41.3l-3.5,10.5l8.8,8.8H58.3z"/>
	<path class="st0" d="M47.4,58.4c-2.2,0-4.3-0.9-5.9-2.4l-0.6-0.6l2.2-2.2l0.6,0.6c1,1,2.3,1.5,3.7,1.5h5.4v3.1H47.4z"/>
</g>
</svg>
