<?xml version="1.0" encoding="utf-8"?>
<!-- Generator: Adobe Illustrator 23.0.1, SVG Export Plug-In . SVG Version: 6.00 Build 0)  -->
<svg version="1.1" id="Layer_1" xmlns="http://www.w3.org/2000/svg" xmlns:xlink="http://www.w3.org/1999/xlink" x="0px" y="0px"
	 viewBox="0 0 100 100" style="enable-background:new 0 0 100 100;" xml:space="preserve">
<style type="text/css">
	.st0{fill:#FFFFFF;}
</style>
<g>
	<path class="st0" d="M36.2,86.5v-4.7l-1-0.4c-3-1.1-5-3.9-5-7.1v-0.1h3.1v0.1c0,2.5,2,4.5,4.5,4.5c2.5,0,4.5-2,4.5-4.5
		c0-2.5-2-4.5-4.5-4.5c-4.2,0-7.6-3.4-7.6-7.6c0-3.2,2-6.1,5-7.1l1-0.4V50h3.1v4.7l1,0.4c3,1.1,5,3.9,5,7.1v0.1h-3.1v-0.1
		c0-2.5-2-4.5-4.5-4.5c-2.5,0-4.5,2-4.5,4.5c0,2.5,2,4.5,4.5,4.5c4.2,0,7.6,3.4,7.6,7.6c0,3.2-2,6.1-5,7.1l-1,0.4v4.7H36.2z"/>
	<path class="st0" d="M13.6,100C6.2,100,0.1,94.1,0,87c0-0.2,0-0.4,0-0.6c0-9.2,1.9-16.9,5.8-23.7c3.4-6,8-10.5,12-14.5
		c6-5.9,11.1-11,12.2-19.3l0.2-1.7h-4.6v-3.1h4.6l-0.3-1.7C28.1,12.4,19,3.1,18.6,2.7l0,0C17.9,2,18.1,1.2,18.2,1
		c0.1-0.2,0.5-1,1.4-1c5,0,7.6,1.7,9.9,3.3C31.7,4.7,33.7,6,37.7,6c4.1,0,6.1-1.3,8.2-2.8C48.2,1.7,50.8,0,55.8,0c1,0,1.3,0.7,1.4,1
		c0.1,0.3,0.3,1-0.3,1.7l0,0c-0.4,0.4-9.5,9.7-11.3,19.7l-0.3,1.7h4.6v3.1h-4.6l0.2,1.7c1.1,8.3,6.2,13.4,12.2,19.3
		c5.9,5.9,12.6,12.6,15.8,23.5l0.3,1.1h24.6c0.9,0,1.5,0.7,1.5,1.5v24.1c0,0.9-0.7,1.5-1.5,1.5H13.6z M96.9,96.9v-9H63.4v9H96.9z
		 M33.1,28.5c-1,9.7-7.1,15.9-13.1,21.8C11.7,58.6,3.1,67.1,3.1,86.4c0,0.2,0,0.4,0,0.5c0.1,5.5,4.8,10,10.5,10h46.7V74.3
		c0-0.9,0.7-1.5,1.5-1.5h8.8l-0.7-2c-3.2-9.2-8.9-14.9-14.5-20.4c-6-5.9-12.1-12.1-13.1-21.9l-0.1-1.3h-9L33.1,28.5z M96.9,84.9v-9
		H63.4v9H96.9z M42.3,24.1l0.2-1.3c0.6-4.4,2.5-9,5.6-13.9c1-2,3.6-4.9,4.4-5.7c-1.8,0.4-6.4,3.6-6.4,3.7c-1.9,1.1-4.3,2.3-8.3,2.3
		S31.3,8,29.4,6.9c-0.1,0-4.6-3.3-6.4-3.7c0.8,0.9,3.4,3.7,4.4,5.7c3.1,4.9,5,9.6,5.6,13.9l0.2,1.3L42.3,24.1L42.3,24.1z"/>
</g>
</svg>
