<?xml version="1.0" encoding="utf-8"?>
<!-- Generator: Adobe Illustrator 23.0.1, SVG Export Plug-In . SVG Version: 6.00 Build 0)  -->
<svg version="1.1" id="Layer_1" xmlns="http://www.w3.org/2000/svg" xmlns:xlink="http://www.w3.org/1999/xlink" x="0px" y="0px"
	 viewBox="0 0 100 100" style="enable-background:new 0 0 100 100;" xml:space="preserve">
<style type="text/css">
	.st0{fill-rule:evenodd;clip-rule:evenodd;fill:#FFFFFF;}
	.st1{fill:#FFFFFF;}
</style>
<g>
	<path class="st0" d="M46.2,45.8l-6-5.9h12L46.2,45.8z M74.5,68.1V51.5c0-4-1.6-7.8-4.4-10.6c-2.8-2.8-6.6-4.4-10.6-4.4H32.8
		c-4,0-7.8,1.6-10.6,4.4c-2.8,2.8-4.4,6.6-4.4,10.6v21.6h3.4V51.5c0-3.1,1.3-6,3.4-8.2c2.2-2.2,5.1-3.4,8.2-3.4h2.6l9.5,9.5
		c0.3,0.3,0.7,0.5,1.2,0.5c0.4,0,0.9-0.2,1.2-0.5l9.5-9.5h2.6c3.1,0,6,1.2,8.2,3.4s3.4,5.1,3.4,8.2v16.6H74.5z"/>
	<path class="st1" d="M33.2,54.8h-3.8v15.4h3.8V54.8z"/>
	<path class="st1" d="M63,54.8h-3.8v11.5H63V54.8z"/>
	<path class="st0" d="M92.4,96.7H74.1v-20h18.3V96.7z M70.8,96.7H34.9c-1.3,0-2.6-0.3-3.7-0.9L9.7,85c-0.6-0.3-1.1-0.8-1.5-1.4
		c-0.4-0.6-0.5-1.3-0.5-2v-0.4c0-0.6,0.2-1.3,0.5-1.8c0.3-0.6,0.7-1,1.3-1.4c0.5-0.3,1.1-0.5,1.8-0.6c0.6,0,1.3,0.1,1.8,0.3l5.5,2.5
		l0.2,0.1l13.2,6.1c0.2,0.1,0.5,0.2,0.7,0.2h18.3v-3.3h-15c-0.9,0-1.7-0.3-2.3-0.9s-1-1.4-1-2.3c0-0.1,0-0.1,0-0.2
		c0-0.9,0.4-1.7,1-2.3c0.6-0.6,1.5-1,2.3-1h12.7c0.3,0,0.6-0.1,0.8-0.2l0.4-0.2c3.3-1.8,6.9-2.7,10.6-2.7c0.1,0,0.2,0,0.3,0
		c3.5,0,6.9,0.9,10,2.5V96.7z M94,73.4H72.9c-3.7-2-7.8-3.1-11.9-3.1h-0.4c-4.3,0-8.5,1.1-12.3,3.1H35.9c-0.9,0-1.7,0.2-2.5,0.5
		c-0.8,0.3-1.5,0.8-2.2,1.4c-0.6,0.6-1.1,1.4-1.4,2.2c-0.3,0.8-0.5,1.7-0.5,2.5c0,0.1,0,0.3,0,0.4c0,0.5,0.1,0.9,0.2,1.3l-9.4-4.3
		L20,77.4l-5.5-2.6c-0.8-0.4-1.8-0.6-2.7-0.6c-0.9,0-1.9,0.1-2.7,0.4c-0.9,0.3-1.7,0.8-2.4,1.4C6,76.7,5.4,77.5,5,78.3
		c-0.4,0.9-0.7,1.9-0.7,2.9v0.4c0,1.3,0.4,2.6,1.1,3.7c0.7,1.1,1.7,2,2.9,2.6l21.5,10.8c1.6,0.8,3.4,1.2,5.2,1.2H94
		c0.2,0,0.4,0,0.6-0.1c0.2-0.1,0.4-0.2,0.5-0.4c0.2-0.2,0.3-0.3,0.4-0.5c0.1-0.2,0.1-0.4,0.1-0.6V75c0-0.2,0-0.4-0.1-0.6
		c-0.1-0.2-0.2-0.4-0.4-0.5c-0.2-0.2-0.3-0.3-0.5-0.4C94.5,73.4,94.2,73.4,94,73.4z"/>
	<path class="st1" d="M81.3,89.4h-3.8v3.8h3.8V89.4z"/>
	<path class="st0" d="M36.4,13.5c0-1.3,0.2-2.6,0.7-3.8c0.5-1.2,1.2-2.3,2.1-3.3c0.9-0.9,2-1.7,3.2-2.2c1.2-0.5,2.5-0.8,3.8-0.8
		s2.6,0.3,3.8,0.8c1.2,0.5,2.3,1.3,3.2,2.2c0.9,0.9,1.6,2,2.1,3.3c0.5,1.2,0.7,2.5,0.7,3.8v6.7c0,1.3-0.2,2.6-0.7,3.8
		c-0.5,1.2-1.2,2.3-2.1,3.3c-0.9,0.9-2,1.7-3.2,2.2c-1.2,0.5-2.5,0.8-3.8,0.8s-2.6-0.3-3.8-0.8c-1.2-0.5-2.3-1.3-3.2-2.2
		c-0.9-0.9-1.6-2-2.1-3.3c-0.5-1.2-0.7-2.5-0.7-3.8V13.5z M46.2,33.7c3.5-0.1,6.8-1.5,9.3-4c2.4-2.5,3.8-5.9,3.7-9.4v-6.7
		c0.1-3.5-1.3-6.9-3.7-9.4c-2.4-2.5-5.8-4-9.3-4c-3.5,0.1-6.8,1.5-9.3,4c-2.4,2.5-3.8,5.9-3.7,9.4v6.7c-0.1,3.5,1.3,6.9,3.7,9.4
		C39.3,32.1,42.6,33.6,46.2,33.7z"/>
	<path class="st0" d="M42.8,13.8c0-0.6,0.2-1.3,0.5-1.8c0.3-0.5,0.8-1,1.4-1.2l-1-3c-1.2,0.5-2.2,1.4-2.9,2.5c-0.7,1.1-1,2.3-1,3.6
		v1.6h2.9V13.8z"/>
</g>
</svg>
