<?xml version="1.0" encoding="utf-8"?>
<!-- Generator: Adobe Illustrator 23.0.1, SVG Export Plug-In . SVG Version: 6.00 Build 0)  -->
<svg version="1.1" id="Layer_1" xmlns="http://www.w3.org/2000/svg" xmlns:xlink="http://www.w3.org/1999/xlink" x="0px" y="0px"
	 viewBox="0 0 100 100" style="enable-background:new 0 0 100 100;" xml:space="preserve">
<style type="text/css">
	.st0{fill-rule:evenodd;clip-rule:evenodd;fill:#FFFFFF;}
</style>
<g>
	<path class="st0" d="M74.8,100H25.2c-3.7-0.1-7.3-1.5-10-4c-2.8-2.5-4.6-5.8-5.1-9.5L3.1,34c-0.3-1.8-0.2-3.6,0.3-5.3
		C3.9,27,4.8,25.4,6,24c1.2-1.3,2.6-2.3,4.2-3c1.6-0.7,3.4-1,5.1-1h12.4c0.6,0,1.2,0.3,1.7,0.7s0.7,1.1,0.7,1.7
		c0,0.6-0.3,1.2-0.7,1.7s-1.1,0.7-1.7,0.7H15.3c-1.1,0-2.2,0.2-3.2,0.6c-1,0.4-1.9,1.1-2.6,1.9c-0.7,0.8-1.2,1.8-1.5,2.9
		c-0.3,1.1-0.4,2.2-0.2,3.2L14.7,86c0.4,2.5,1.7,4.8,3.6,6.5c1.9,1.7,4.3,2.7,6.9,2.8h49.6c2.5-0.1,5-1.1,6.9-2.8
		c1.9-1.7,3.2-4,3.6-6.5l6.9-52.5c0.2-1.1,0.1-2.2-0.2-3.2c-0.3-1.1-0.8-2-1.5-2.9c-0.7-0.8-1.6-1.5-2.6-1.9c-1-0.4-2.1-0.6-3.2-0.6
		H72c-0.6,0-1.2-0.3-1.7-0.7c-0.5-0.5-0.7-1.1-0.7-1.7s0.3-1.2,0.7-1.7c0.5-0.5,1.1-0.7,1.7-0.7h12.6c1.8,0,3.5,0.3,5.1,1
		c1.6,0.7,3.1,1.8,4.2,3.1c1.2,1.4,2,3,2.5,4.7c0.5,1.7,0.6,3.5,0.3,5.3L90,86.6c-0.5,3.7-2.4,7-5.1,9.5
		C82.1,98.5,78.5,99.9,74.8,100z"/>
	<path class="st0" d="M50,98c-0.3,0-0.6-0.2-0.7-0.4c-0.2-0.2-0.3-0.5-0.3-0.8V45.2c0-0.1,0-0.3,0-0.4c0-0.1,0.1-0.3,0.2-0.4
		c0.1-0.1,0.2-0.2,0.4-0.3C49.7,44,49.8,44,50,44s0.3,0,0.4,0.1c0.1,0.1,0.3,0.2,0.4,0.3c0.1,0.1,0.2,0.3,0.2,0.4c0,0.1,0,0.3,0,0.4
		v51.6c0,0.3-0.1,0.6-0.3,0.8C50.6,97.8,50.3,98,50,98z"/>
	<path class="st0" d="M50,4.7c-3.6,0-7.1,1.1-10.2,3.1c-3,2-5.3,4.9-6.7,8.2c-1.4,3.3-1.7,7-1,10.6c0.7,3.5,2.4,6.8,5,9.4
		s5.8,4.3,9.4,5c3.5,0.7,7.2,0.3,10.6-1c3.3-1.4,6.2-3.7,8.2-6.7c2-3,3.1-6.5,3.1-10.2c0-4.8-1.9-9.5-5.4-12.9
		C59.5,6.7,54.8,4.7,50,4.7z M50,46c-4.5,0-9-1.3-12.8-3.9c-3.8-2.5-6.7-6.1-8.5-10.3c-1.7-4.2-2.2-8.8-1.3-13.3
		c0.9-4.5,3.1-8.6,6.3-11.8c3.2-3.2,7.3-5.4,11.8-6.3C50-0.4,54.6,0,58.8,1.8c4.2,1.7,7.8,4.7,10.3,8.5C71.7,14,73,18.5,73,23
		c0,6.1-2.4,11.9-6.7,16.3C61.9,43.6,56.1,46,50,46z"/>
	<path class="st0" d="M48.2,26c-0.2,0-0.3,0-0.5-0.1c-0.2-0.1-0.3-0.2-0.4-0.3c-0.1-0.1-0.2-0.2-0.2-0.4C47,25.1,47,25,47,24.9
		c0-0.1,0-0.3,0.1-0.4c0.1-0.1,0.2-0.2,0.3-0.3l9.6-7.8c0.2-0.2,0.5-0.3,0.8-0.3s0.6,0.1,0.8,0.3c0.1,0.1,0.2,0.2,0.2,0.4
		c0.1,0.1,0.1,0.3,0.1,0.4c0,0.1-0.1,0.3-0.1,0.4c-0.1,0.1-0.2,0.2-0.3,0.3L49,25.7c-0.1,0.1-0.2,0.2-0.4,0.2
		C48.5,26,48.3,26,48.2,26z"/>
	<path class="st0" d="M36,56C36,56,36.1,56,36,56L36,56z M36,58c-1.7,0-3-0.9-3-2s1.3-2,3-2s3,0.9,3,2S37.7,58,36,58z"/>
	<path class="st0" d="M25,58c-0.4,0-0.8-0.1-1.1-0.3c-0.3-0.2-0.6-0.5-0.7-0.9C23,56.4,23,56,23,55.6c0.1-0.4,0.3-0.7,0.5-1
		s0.6-0.5,1-0.5c0.4-0.1,0.8,0,1.2,0.1c0.4,0.2,0.7,0.4,0.9,0.7c0.2,0.3,0.3,0.7,0.3,1.1c0,0.5-0.2,1-0.6,1.4C26,57.8,25.5,58,25,58
		z"/>
	<path class="st0" d="M36,68C36,68,36.1,68,36,68L36,68z M36,70c-1.7,0-3-0.9-3-2s1.3-2,3-2s3,0.9,3,2S37.7,70,36,70z"/>
	<path class="st0" d="M25,70c-0.4,0-0.8-0.1-1.1-0.3c-0.3-0.2-0.6-0.5-0.7-0.9C23,68.4,23,68,23,67.6c0.1-0.4,0.3-0.7,0.5-1
		s0.6-0.5,1-0.5c0.4-0.1,0.8,0,1.2,0.1c0.4,0.2,0.7,0.4,0.9,0.7c0.2,0.3,0.3,0.7,0.3,1.1c0,0.5-0.2,1-0.6,1.4C26,69.8,25.5,70,25,70
		z"/>
	<path class="st0" d="M36,80.9C36,80.9,36.1,80.9,36,80.9L36,80.9z M36,84c-0.6,0-1.2-0.2-1.7-0.5c-0.5-0.3-0.9-0.8-1.1-1.3
		c-0.2-0.5-0.3-1.2-0.2-1.7c0.1-0.6,0.4-1.1,0.8-1.5c0.4-0.4,1-0.7,1.5-0.8c0.6-0.1,1.2-0.1,1.7,0.2c0.5,0.2,1,0.6,1.3,1.1
		c0.3,0.5,0.5,1.1,0.5,1.7c0,0.8-0.3,1.6-0.9,2.1C37.6,83.7,36.8,84,36,84z"/>
	<path class="st0" d="M25,84c-1.1,0-2-1.3-2-3s0.9-3,2-3s2,1.3,2,3S26.1,84,25,84z"/>
	<path class="st0" d="M64,56C64,56,63.9,56,64,56L64,56z M64,58c1.7,0,3-0.9,3-2s-1.3-2-3-2c-1.7,0-3,0.9-3,2S62.3,58,64,58z"/>
	<path class="st0" d="M75,58c0.4,0,0.8-0.1,1.1-0.3c0.3-0.2,0.6-0.5,0.7-0.9C77,56.4,77,56,77,55.6c-0.1-0.4-0.3-0.7-0.5-1
		s-0.6-0.5-1-0.5c-0.4-0.1-0.8,0-1.2,0.1c-0.4,0.2-0.7,0.4-0.9,0.7C73.1,55.2,73,55.6,73,56c0,0.5,0.2,1,0.6,1.4S74.5,58,75,58z"/>
	<path class="st0" d="M64,68C64,68,63.9,68,64,68L64,68z M64,70c1.7,0,3-0.9,3-2s-1.3-2-3-2c-1.7,0-3,0.9-3,2S62.3,70,64,70z"/>
	<path class="st0" d="M75,70c0.4,0,0.8-0.1,1.1-0.3c0.3-0.2,0.6-0.5,0.7-0.9C77,68.4,77,68,77,67.6c-0.1-0.4-0.3-0.7-0.5-1
		s-0.6-0.5-1-0.5c-0.4-0.1-0.8,0-1.2,0.1c-0.4,0.2-0.7,0.4-0.9,0.7C73.1,67.2,73,67.6,73,68c0,0.5,0.2,1,0.6,1.4S74.5,70,75,70z"/>
	<path class="st0" d="M64,80.9C64,80.9,63.9,80.9,64,80.9L64,80.9z M64,84c0.6,0,1.2-0.2,1.7-0.5c0.5-0.3,0.9-0.8,1.1-1.3
		c0.2-0.5,0.3-1.2,0.2-1.7c-0.1-0.6-0.4-1.1-0.8-1.5c-0.4-0.4-1-0.7-1.5-0.8c-0.6-0.1-1.2-0.1-1.7,0.2c-0.5,0.2-1,0.6-1.3,1.1
		C61.2,79.8,61,80.4,61,81c0,0.8,0.3,1.6,0.9,2.1S63.2,84,64,84z"/>
	<path class="st0" d="M75,84c1.1,0,2-1.3,2-3s-0.9-3-2-3s-2,1.3-2,3S73.9,84,75,84z"/>
</g>
</svg>
